# This file uses centimeters as units for non-parametric coordinates.

mtllib Fries5.mtl
g default
v 4.795108 0.625207 -0.691749
v 4.841912 0.625207 -0.691749
v 4.795108 0.800353 -0.691749
v 4.841912 0.800353 -0.691749
v 4.795108 0.975499 -0.691749
v 4.841912 0.975499 -0.691749
v 4.795108 1.147681 -0.672924
v 4.841912 1.147681 -0.672924
v 4.795108 1.314461 -0.619443
v 4.841912 1.314461 -0.619443
v 4.795108 1.328753 -0.664012
v 4.841912 1.328753 -0.664012
v 4.795108 1.161973 -0.717494
v 4.841912 1.161973 -0.717494
v 4.795108 0.975499 -0.738554
v 4.841912 0.975499 -0.738554
v 4.795108 0.800353 -0.738554
v 4.841912 0.800353 -0.738554
v 4.795108 0.625207 -0.738554
v 4.841912 0.625207 -0.738554
vt 0.375000 0.000000
vt 0.625000 0.000000
vt 0.625000 0.062500
vt 0.375000 0.062500
vt 0.625000 0.125000
vt 0.375000 0.125000
vt 0.625000 0.187500
vt 0.375000 0.187500
vt 0.625000 0.250000
vt 0.375000 0.250000
vt 0.625000 0.500000
vt 0.375000 0.500000
vt 0.625000 0.562500
vt 0.375000 0.562500
vt 0.625000 0.625000
vt 0.375000 0.625000
vt 0.625000 0.687500
vt 0.375000 0.687500
vt 0.625000 0.750000
vt 0.375000 0.750000
vt 0.625000 1.000000
vt 0.375000 1.000000
vt 0.875000 0.000000
vt 0.875000 0.062500
vt 0.875000 0.125000
vt 0.875000 0.187500
vt 0.875000 0.250000
vt 0.125000 0.000000
vt 0.125000 0.062500
vt 0.125000 0.125000
vt 0.125000 0.187500
vt 0.125000 0.250000
vn 0.000000 0.000000 1.000000
vn 0.000000 0.000000 1.000000
vn 0.000000 0.000000 1.000000
vn 0.000000 0.000000 1.000000
vn 0.000000 -0.054120 0.998534
vn 0.000000 -0.054120 0.998534
vn 0.000000 -0.208624 0.977996
vn 0.000000 -0.208624 0.977996
vn 0.000000 -0.305356 0.952238
vn 0.000000 -0.305356 0.952238
vn 0.000000 0.952238 0.305356
vn 0.000000 0.952238 0.305356
vn 0.000000 0.952238 0.305356
vn 0.000000 0.952238 0.305356
vn 0.000000 0.305356 -0.952238
vn 0.000000 0.305356 -0.952238
vn 0.000000 0.206469 -0.978453
vn 0.000000 0.206469 -0.978453
vn 0.000000 0.058141 -0.998308
vn 0.000000 0.058141 -0.998308
vn 0.000000 0.000000 -1.000000
vn 0.000000 0.000000 -1.000000
vn 0.000000 0.000000 -1.000000
vn 0.000000 0.000000 -1.000000
vn 0.000000 -1.000000 0.000000
vn 0.000000 -1.000000 0.000000
vn 0.000000 -1.000000 0.000000
vn 0.000000 -1.000000 0.000000
vn 1.000000 0.000000 0.000000
vn 1.000000 0.000000 0.000000
vn 1.000000 0.000000 0.000000
vn 1.000000 0.000000 0.000000
vn 1.000000 0.000000 0.000000
vn 1.000000 0.000000 0.000000
vn 1.000000 0.000000 0.000000
vn 1.000000 0.000000 0.000000
vn 1.000000 0.000000 0.000000
vn 1.000000 0.000000 0.000000
vn -1.000000 0.000000 0.000000
vn -1.000000 0.000000 0.000000
vn -1.000000 0.000000 0.000000
vn -1.000000 0.000000 0.000000
vn -1.000000 0.000000 0.000000
vn -1.000000 0.000000 0.000000
vn -1.000000 0.000000 0.000000
vn -1.000000 0.000000 0.000000
vn -1.000000 0.000000 0.000000
vn -1.000000 0.000000 0.000000
s 1
g polySurface30 pCube41
usemtl lambert3SG
f 1/1/1 2/2/2 4/3/3 3/4/4
f 3/4/4 4/3/3 6/5/5 5/6/6
f 5/6/6 6/5/5 8/7/7 7/8/8
f 7/8/8 8/7/7 10/9/9 9/10/10
s off
f 9/10/11 10/9/12 12/11/13 11/12/14
s 2
f 11/12/15 12/11/16 14/13/17 13/14/18
f 13/14/18 14/13/17 16/15/19 15/16/20
f 15/16/20 16/15/19 18/17/21 17/18/22
f 17/18/22 18/17/21 20/19/23 19/20/24
s off
f 19/20/25 20/19/26 2/21/27 1/22/28
s 3
f 2/2/29 20/23/30 18/24/31 4/3/32
f 4/3/32 18/24/31 16/25/33 6/5/34
f 6/5/34 16/25/33 14/26/35 8/7/36
f 8/7/36 14/26/35 12/27/37 10/9/38
s 4
f 19/28/39 1/1/40 3/4/41 17/29/42
f 17/29/42 3/4/41 5/6/43 15/30/44
f 15/30/44 5/6/43 7/8/45 13/31/46
f 13/31/46 7/8/45 9/10/47 11/32/48
