# This file uses centimeters as units for non-parametric coordinates.

mtllib Nugget.mtl
g default
v 7.600459 0.103470 0.080751
v 7.642362 0.153378 0.128227
v 7.752338 0.010939 0.080751
v 7.761892 0.087213 0.128227
v 7.945365 0.003084 0.080751
v 7.946831 0.075167 0.128227
v 8.193100 0.010939 0.080890
v 8.183489 0.087230 0.128227
v 8.340027 0.103470 0.080890
v 8.297325 0.153378 0.128227
v 7.507928 0.255349 0.080751
v 7.576214 0.272965 0.128227
v 7.762000 0.273016 0.128227
v 7.946831 0.273016 0.128227
v 8.183439 0.273016 0.128227
v 8.437510 0.255349 0.080890
v 8.369241 0.272908 0.128227
v 7.503289 0.502705 0.080751
v 7.567787 0.509671 0.128227
v 7.765107 0.509623 0.128227
v 7.946831 0.509623 0.128227
v 8.183439 0.509623 0.128227
v 8.445365 0.503084 0.080890
v 8.381287 0.509623 0.128227
v 7.536578 0.701401 0.080751
v 7.602519 0.696576 0.128227
v 7.776849 0.722152 0.127996
v 7.955966 0.746231 0.128227
v 8.183439 0.746231 0.128227
v 8.441981 0.752665 0.080890
v 8.377420 0.746259 0.128227
v 7.631087 0.854868 0.080751
v 7.672890 0.818643 0.128127
v 7.810557 1.033878 0.080751
v 7.819586 0.955571 0.127996
v 7.945365 1.233653 0.080751
v 7.946775 1.138096 0.128227
v 8.193100 1.239382 0.080890
v 8.183546 1.163109 0.128227
v 8.340027 1.144652 0.080890
v 8.297325 1.100161 0.128227
v 7.631200 0.855060 -0.081135
v 7.672898 0.818636 -0.127975
v 7.819538 0.954445 -0.127975
v 7.810560 1.033936 -0.081135
v 7.946802 1.136455 -0.127975
v 7.945365 1.233621 -0.081135
v 8.183506 1.163053 -0.127975
v 8.193075 1.239382 -0.080856
v 8.297325 1.100161 -0.127975
v 8.340164 1.144751 -0.080856
v 7.536578 0.701401 -0.081135
v 7.602563 0.696557 -0.127975
v 7.777988 0.731287 -0.127975
v 7.946831 0.746231 -0.127975
v 8.183439 0.746231 -0.127975
v 8.441981 0.752665 -0.080890
v 8.377423 0.746282 -0.127975
v 7.503289 0.502705 -0.081135
v 7.567790 0.509650 -0.127975
v 7.765107 0.509623 -0.127975
v 7.946831 0.509623 -0.127975
v 8.183439 0.509623 -0.127975
v 8.445365 0.503084 -0.080890
v 8.381287 0.509623 -0.127975
v 7.507928 0.255349 -0.081135
v 7.576197 0.272908 -0.127975
v 7.762000 0.273016 -0.127975
v 7.946831 0.273016 -0.127975
v 8.183439 0.273016 -0.127975
v 8.437510 0.255349 -0.080890
v 8.369224 0.272965 -0.127975
v 7.600459 0.103470 -0.081135
v 7.642362 0.153378 -0.127975
v 7.752338 0.010939 -0.081135
v 7.761949 0.087230 -0.127975
v 7.945365 0.003084 -0.081135
v 7.946831 0.075167 -0.127975
v 8.193100 0.010939 -0.080890
v 8.183546 0.087213 -0.127975
v 8.340164 0.103470 -0.080856
v 8.297325 0.153378 -0.127975
vt 0.384384 0.961885
vt 0.380285 0.790590
vt 0.358564 0.005285
vt 0.386404 0.011404
vt 0.437153 0.958113
vt 0.447101 -0.000000
vt 0.436236 0.011172
vt 0.498986 0.957921
vt 0.507240 0.000000
vt 0.498986 0.010238
vt 0.563897 0.958113
vt 0.572795 -0.000000
vt 0.564759 0.011179
vt 0.619715 0.959410
vt 0.615616 0.788115
vt 0.641436 0.005285
vt 0.166887 0.061103
vt 0.386179 0.060241
vt 0.437398 0.061384
vt 0.498986 0.062500
vt 0.563616 0.061384
vt 0.613828 0.060223
vt 0.666887 0.061103
vt 0.833113 0.061103
vt 0.167030 0.124905
vt 0.385376 0.125013
vt 0.438527 0.125000
vt 0.498461 0.125000
vt 0.562500 0.125000
vt 0.614762 0.125000
vt 0.667079 0.125000
vt 0.832921 0.125000
vt 0.167021 0.188949
vt 0.386273 0.189785
vt 0.438786 0.185636
vt 0.500425 0.186123
vt 0.562933 0.185931
vt 0.614608 0.186154
vt 0.667026 0.186075
vt 0.832974 0.186075
vt 0.363463 0.274068
vt 0.383479 0.462147
vt 0.387002 0.238895
vt 0.438044 0.239511
vt 0.496708 0.242699
vt 0.564777 0.244348
vt 0.611139 0.244186
vt 0.632951 0.273888
vt 0.375000 0.510259
vt 0.376179 0.557469
vt 0.437124 0.456567
vt 0.499851 0.457903
vt 0.563891 0.458078
vt 0.619535 0.459681
vt 0.625000 0.504843
vt 0.624188 0.560282
vt 0.386285 0.560219
vt 0.438677 0.561676
vt 0.375000 0.569664
vt 0.375739 0.621454
vt 0.497018 0.563671
vt 0.562933 0.564069
vt 0.614609 0.563841
vt 0.625000 0.569786
vt 0.625000 0.621380
vt 0.385377 0.624993
vt 0.438527 0.625000
vt 0.375000 0.632281
vt 0.379672 0.683750
vt 0.498461 0.625000
vt 0.562500 0.625000
vt 0.614762 0.625000
vt 0.625000 0.632240
vt 0.623218 0.683750
vt 0.386172 0.689777
vt 0.437398 0.688616
vt 0.375000 0.697795
vt 0.375000 0.739430
vt 0.498986 0.687500
vt 0.563616 0.688616
vt 0.613821 0.689759
vt 0.625000 0.697795
vt 0.625000 0.739430
vt 0.386404 0.738596
vt 0.436257 0.738821
vt 0.437153 0.791887
vt 0.498986 0.739762
vt 0.498986 0.792079
vt 0.564777 0.738828
vt 0.563897 0.791887
vt 0.613596 0.738596
vt 0.613596 0.011404
vt 0.437116 0.292097
vt 0.499847 0.291102
vt 0.563897 0.291887
vt 0.387006 0.511108
vt 0.438023 0.510615
vt 0.496711 0.507517
vt 0.564766 0.505659
vt 0.611139 0.505814
vt 0.831558 0.010570
vt 0.832329 0.245157
vt 0.168442 0.010570
vt 0.333113 0.061103
vt 0.332970 0.124905
vt 0.332979 0.188949
vt 0.167758 0.239741
vt 0.432352 0.001937
vt 0.495366 -0.000000
vt 0.558750 0.004672
vn -0.405594 -0.402128 0.820845
vn -0.401800 -0.405523 0.821041
vn -0.138917 -0.525029 0.839670
vn -0.148752 -0.523605 0.838875
vn -0.558645 -0.127508 0.819547
vn -0.558959 -0.126091 0.819552
vn -0.000247 -0.537601 0.843200
vn -0.000072 -0.537601 0.843199
vn 0.120131 -0.525751 0.842113
vn 0.130214 -0.524246 0.841553
vn 0.402314 -0.405312 0.820893
vn 0.405202 -0.402746 0.820736
vn 0.554007 -0.137116 0.821143
vn 0.553298 -0.139898 0.821151
vn -0.583839 0.038973 0.810934
vn -0.583579 0.034732 0.811313
vn 0.585654 -0.007937 0.810522
vn 0.585901 -0.007360 0.810349
vn -0.573622 0.208450 0.792153
vn -0.575520 0.195891 0.793979
vn 0.606555 0.092712 0.789617
vn 0.606661 0.093475 0.789446
vn -0.484748 0.401677 0.776965
vn -0.483812 0.402650 0.777045
vn 0.529152 0.266896 0.805460
vn 0.536654 0.257298 0.803617
vn -0.482660 0.420380 0.768323
vn -0.501091 0.407922 0.763222
vn -0.283380 0.449674 0.847047
vn -0.217983 0.461720 0.859825
vn 0.086808 0.497181 0.863293
vn 0.078792 0.496505 0.864451
vn -0.478806 0.399048 -0.781988
vn -0.479726 0.398115 -0.781900
vn -0.568766 0.206838 -0.796068
vn -0.570637 0.194144 -0.797923
vn -0.493883 0.402929 -0.770538
vn -0.475608 0.415805 -0.775180
vn -0.213016 0.454924 -0.864678
vn -0.279745 0.442569 -0.851983
vn 0.077897 0.491143 -0.867589
vn 0.085443 0.491894 -0.866452
vn 0.526850 0.265924 -0.807288
vn 0.534377 0.256318 -0.805445
vn 0.604352 0.092336 -0.791349
vn 0.604456 0.093099 -0.791180
vn -0.578604 0.038686 -0.814690
vn -0.578347 0.034437 -0.815064
vn 0.583568 -0.007922 -0.812026
vn 0.583817 -0.007345 -0.811852
vn -0.553638 -0.126397 -0.823110
vn -0.553962 -0.124930 -0.823115
vn 0.551857 -0.136608 -0.822674
vn 0.551169 -0.139301 -0.822683
vn -0.401844 -0.398520 -0.824441
vn -0.398039 -0.401914 -0.824639
vn 0.400848 -0.403656 -0.822425
vn 0.403683 -0.401129 -0.822274
vn -0.147345 -0.518551 -0.842255
vn -0.137532 -0.519964 -0.843043
vn 0.000334 -0.533307 -0.845921
vn 0.000204 -0.533303 -0.845924
vn 0.130256 -0.521274 -0.843390
vn 0.120424 -0.522689 -0.843976
vn 0.000000 0.000000 1.000000
vn 0.000000 0.000000 1.000000
vn -0.000000 0.000000 1.000000
vn -0.000000 0.000000 1.000000
vn 0.000000 0.000000 1.000000
vn 0.000000 0.000000 1.000000
vn 0.000000 0.000000 1.000000
vn 0.000000 0.000000 1.000000
vn 0.000000 0.000000 1.000000
vn 0.000000 0.000000 1.000000
vn -0.000024 0.000246 1.000000
vn 0.000248 0.000216 1.000000
vn -0.000144 0.000116 1.000000
vn 0.000000 0.000000 1.000000
vn 0.000000 0.000000 1.000000
vn -0.000249 0.000291 1.000000
vn 0.000725 0.000369 1.000000
vn -0.000429 0.000100 1.000000
vn -0.000000 0.000000 1.000000
vn 0.000000 0.000000 1.000000
vn -0.001268 0.000065 0.999999
vn 0.001173 -0.000090 0.999999
vn -0.000248 0.000013 1.000000
vn -0.000000 0.000000 1.000000
vn 0.000000 0.000000 1.000000
vn -0.771773 0.635899 0.000176
vn -0.769555 0.638580 0.000168
vn -0.769561 0.638574 0.000168
vn -0.771742 0.635936 0.000176
vn -0.472962 0.881083 -0.000034
vn -0.473980 0.880536 -0.000034
vn 0.219954 0.975510 0.000133
vn 0.219302 0.975657 0.000132
vn 0.890348 0.455280 0.000501
vn 0.890365 0.455248 0.000501
vn 0.000000 0.000000 -1.000000
vn 0.000000 0.000000 -1.000000
vn -0.000000 0.000000 -1.000000
vn -0.000000 0.000000 -1.000000
vn 0.000000 0.000000 -1.000000
vn 0.000000 0.000000 -1.000000
vn 0.000000 0.000000 -1.000000
vn 0.000000 0.000000 -1.000000
vn 0.000000 0.000000 -1.000000
vn 0.000000 0.000000 -1.000000
vn 0.000000 0.000000 -1.000000
vn 0.000000 0.000000 -1.000000
vn 0.000000 0.000000 -1.000000
vn 0.000000 0.000000 -1.000000
vn 0.000000 0.000000 -1.000000
vn 0.000000 0.000000 -1.000000
vn 0.000000 0.000000 -1.000000
vn 0.000000 0.000000 -1.000000
vn 0.000000 0.000000 -1.000000
vn 0.000000 0.000000 -1.000000
vn 0.000000 0.000000 -1.000000
vn 0.000000 0.000000 -1.000000
vn 0.000000 0.000000 -1.000000
vn 0.000000 0.000000 -1.000000
vn 0.000000 0.000000 -1.000000
vn -0.707107 -0.707107 0.000000
vn -0.279458 -0.960158 0.000000
vn -0.279458 -0.960158 0.000000
vn -0.707107 -0.707107 0.000000
vn -0.000052 -1.000000 0.000000
vn 0.000020 -1.000000 0.000000
vn 0.246021 -0.969264 0.000096
vn 0.246603 -0.969117 0.000096
vn 0.707120 -0.707094 0.000300
vn 0.707093 -0.707121 0.000300
vn 0.967030 -0.254661 0.000156
vn 0.967014 -0.254725 0.000156
vn 0.999960 -0.008989 0.000000
vn 0.999960 -0.008989 0.000000
vn 0.986809 0.161887 0.000302
vn 0.986807 0.161899 0.000302
vn -0.971634 -0.236488 0.000000
vn -0.971634 -0.236488 0.000000
vn -0.997944 0.064097 0.000000
vn -0.997944 0.064097 0.000000
vn -0.939999 0.341179 0.000006
vn -0.939998 0.341179 0.000006
s 1
g pCube38
usemtl initialShadingGroup
f 2/4/1 1/3/2 3/108/3 4/7/4
f 1/3/2 2/4/1 12/18/5 11/104/6
f 4/7/4 3/6/3 5/109/7 6/10/8
f 6/10/8 5/9/7 7/110/9 8/13/10
f 8/13/10 7/12/9 9/16/11 10/92/12
f 10/92/12 9/16/11 16/23/13 17/22/14
f 11/104/6 12/18/5 19/26/15 18/105/16
f 17/22/14 16/23/13 23/31/17 24/30/18
f 18/105/16 19/26/15 26/34/19 25/106/20
f 24/30/18 23/31/17 30/39/21 31/38/22
f 25/106/20 26/34/19 33/43/23 32/41/24
f 31/38/22 30/39/21 40/48/25 41/47/26
f 32/41/24 33/43/23 35/44/27 34/93/28
f 34/93/28 35/44/27 37/45/29 36/94/30
f 36/94/30 37/45/29 39/46/31 38/95/32
f 38/95/32 39/46/31 41/47/26 40/48/25
s 2
f 42/49/33 43/96/34 53/57/35 52/50/36
f 43/96/34 42/42/33 45/51/37 44/97/38
f 44/97/38 45/51/37 47/52/39 46/98/40
f 46/98/40 47/52/39 49/53/41 48/99/42
f 48/99/42 49/53/41 51/54/43 50/100/44
f 50/100/44 51/55/43 57/56/45 58/63/46
f 52/59/36 53/57/35 60/66/47 59/60/48
f 58/63/46 57/64/45 64/65/49 65/72/50
f 59/68/48 60/66/47 67/75/51 66/69/52
f 65/72/50 64/73/49 71/74/53 72/81/54
f 66/77/52 67/75/51 74/84/55 73/78/56
f 72/81/54 71/82/53 81/83/57 82/91/58
f 73/2/56 74/84/55 76/85/59 75/86/60
f 75/86/60 76/85/59 78/87/61 77/88/62
f 77/88/62 78/87/61 80/89/63 79/90/64
f 79/90/64 80/89/63 82/91/58 81/15/57
s 3
f 2/4/65 4/7/66 13/19/67 12/18/68
f 4/7/66 6/10/69 14/20/70 13/19/67
f 6/10/69 8/13/71 15/21/72 14/20/70
f 8/13/71 10/92/73 17/22/74 15/21/72
f 12/18/68 13/19/67 20/27/75 19/26/76
f 13/19/67 14/20/70 21/28/77 20/27/75
f 14/20/70 15/21/72 22/29/78 21/28/77
f 15/21/72 17/22/74 24/30/79 22/29/78
f 19/26/76 20/27/75 27/35/80 26/34/81
f 20/27/75 21/28/77 28/36/82 27/35/80
f 21/28/77 22/29/78 29/37/83 28/36/82
f 22/29/78 24/30/79 31/38/84 29/37/83
f 26/34/81 27/35/80 35/44/85 33/43/86
f 27/35/80 28/36/82 37/45/87 35/44/85
f 28/36/82 29/37/83 39/46/88 37/45/87
f 29/37/83 31/38/84 41/47/89 39/46/88
s 4
f 32/41/90 34/93/91 45/51/92 42/42/93
f 34/93/91 36/94/94 47/52/95 45/51/92
f 36/94/94 38/95/96 49/53/97 47/52/95
f 38/95/96 40/48/98 51/54/99 49/53/97
s 5
f 43/96/100 44/97/101 54/58/102 53/57/103
f 44/97/101 46/98/104 55/61/105 54/58/102
f 46/98/104 48/99/106 56/62/107 55/61/105
f 48/99/106 50/100/108 58/63/109 56/62/107
f 53/57/103 54/58/102 61/67/110 60/66/111
f 54/58/102 55/61/105 62/70/112 61/67/110
f 55/61/105 56/62/107 63/71/113 62/70/112
f 56/62/107 58/63/109 65/72/114 63/71/113
f 60/66/111 61/67/110 68/76/115 67/75/116
f 61/67/110 62/70/112 69/79/117 68/76/115
f 62/70/112 63/71/113 70/80/118 69/79/117
f 63/71/113 65/72/114 72/81/119 70/80/118
f 67/75/116 68/76/115 76/85/120 74/84/121
f 68/76/115 69/79/117 78/87/122 76/85/120
f 69/79/117 70/80/118 80/89/123 78/87/122
f 70/80/118 72/81/119 82/91/124 80/89/123
s 4
f 73/2/125 75/86/126 3/5/127 1/1/128
f 75/86/126 77/88/129 5/8/130 3/5/127
f 77/88/129 79/90/131 7/11/132 5/8/130
f 79/90/131 81/15/133 9/14/134 7/11/132
f 9/16/134 81/101/133 71/24/135 16/23/136
f 16/23/136 71/24/135 64/32/137 23/31/138
f 23/31/138 64/32/137 57/40/139 30/39/140
f 30/39/140 57/40/139 51/102/99 40/48/98
f 73/103/125 1/3/128 11/104/141 66/17/142
f 66/17/142 11/104/141 18/105/143 59/25/144
f 59/25/144 18/105/143 25/106/145 52/33/146
f 52/33/146 25/106/145 32/41/90 42/107/93
