# This file uses centimeters as units for non-parametric coordinates.

mtllib Spatula.mtl
g default
v -0.267139 0.012943 -0.811061
v 0.267139 0.012943 -0.811061
v -0.267139 -0.012943 -0.811061
v 0.267139 -0.012943 -0.811061
v 0.029063 0.020329 -0.149932
v 0.216358 0.020329 -0.282036
v 0.216358 -0.020329 -0.279468
v 0.029054 -0.020329 -0.149932
v -0.216358 0.020329 -0.285487
v -0.036026 0.020329 -0.149932
v -0.037407 -0.020329 -0.149932
v -0.216358 -0.020329 -0.284057
v -0.036716 -0.016569 0.811061
v 0.029058 -0.016569 0.811061
v -0.036716 0.016569 0.811061
v 0.029058 0.016569 0.811061
v -0.036716 0.014069 -0.188939
v 0.029058 0.014069 -0.188939
v -0.036716 -0.014069 -0.188939
v 0.029058 -0.014069 -0.188939
vt 0.375000 0.500000
vt 0.625000 0.500000
vt 0.375000 0.750000
vt 0.625000 0.750000
vt 0.875000 0.000000
vt 0.875000 0.250000
vt 0.125000 0.000000
vt 0.125000 0.250000
vt 0.529773 0.250000
vt 0.625000 0.299954
vt 0.674954 0.250000
vt 0.625000 0.951017
vt 0.673983 0.000000
vt 0.529769 0.000000
vt 0.529769 1.000000
vt 0.323741 0.250000
vt 0.375000 0.301259
vt 0.468086 0.250000
vt 0.467289 0.000000
vt 0.467289 1.000000
vt 0.324282 0.000000
vt 0.375000 0.949282
vt 0.375000 0.000000
vt 0.625000 0.000000
vt 0.625000 0.250000
vt 0.375000 0.250000
vt 0.625000 0.500000
vt 0.375000 0.500000
vt 0.625000 0.750000
vt 0.375000 0.750000
vt 0.625000 1.000000
vt 0.375000 1.000000
vt 0.875000 0.000000
vt 0.875000 0.250000
vt 0.125000 0.000000
vt 0.125000 0.250000
vn 0.000000 0.000000 1.000000
vn 0.000000 0.000000 1.000000
vn 0.000000 0.000000 1.000000
vn 0.000000 0.000000 1.000000
vn 0.000044 0.999923 -0.012387
vn 0.000044 0.999923 -0.012387
vn 0.000044 0.999923 -0.012387
vn 0.000044 0.999923 -0.012387
vn 0.000044 0.999923 -0.012387
vn 0.000044 0.999923 -0.012387
vn 0.000000 0.000000 -1.000000
vn 0.000000 0.000000 -1.000000
vn 0.000000 0.000000 -1.000000
vn 0.000000 0.000000 -1.000000
vn 0.000059 -0.999924 -0.012363
vn 0.000059 -0.999924 -0.012363
vn 0.000059 -0.999924 -0.012363
vn 0.000059 -0.999924 -0.012363
vn 0.000059 -0.999924 -0.012363
vn 0.000059 -0.999924 -0.012363
vn 0.995440 0.003679 0.095320
vn 0.995440 0.003679 0.095320
vn 0.995440 0.003679 0.095320
vn 0.995440 0.003679 0.095320
vn -0.995375 0.002060 0.096042
vn -0.995375 0.002060 0.096042
vn -0.995375 0.002060 0.096042
vn -0.995375 0.002060 0.096042
vn -0.600133 0.024247 0.799532
vn -0.600133 0.024247 0.799532
vn -0.600133 0.024247 0.799532
vn -0.600133 0.024247 0.799532
vn 0.572419 0.025834 0.819554
vn 0.572419 0.025834 0.819554
vn 0.572419 0.025834 0.819554
vn 0.572419 0.025834 0.819554
vn 0.000000 0.000000 1.000000
vn 0.000000 0.000000 1.000000
vn 0.000000 0.000000 1.000000
vn 0.000000 0.000000 1.000000
vn 0.000000 0.999997 -0.002500
vn 0.000000 0.999997 -0.002500
vn 0.000000 0.999997 -0.002500
vn 0.000000 0.999997 -0.002500
vn 0.000000 0.000000 -1.000000
vn 0.000000 0.000000 -1.000000
vn 0.000000 0.000000 -1.000000
vn 0.000000 0.000000 -1.000000
vn 0.000000 -0.999997 -0.002500
vn 0.000000 -0.999997 -0.002500
vn 0.000000 -0.999997 -0.002500
vn 0.000000 -0.999997 -0.002500
vn 1.000000 0.000000 0.000000
vn 1.000000 0.000000 0.000000
vn 1.000000 0.000000 0.000000
vn 1.000000 0.000000 0.000000
vn -1.000000 0.000000 0.000000
vn -1.000000 0.000000 0.000000
vn -1.000000 0.000000 0.000000
vn -1.000000 0.000000 0.000000
s off
g pCube42
usemtl initialShadingGroup
f 10/18/1 11/19/2 8/14/3 5/9/4
f 9/17/5 10/18/6 5/9/7 6/10/8 2/2/9 1/1/10
f 1/1/11 2/2/12 4/4/13 3/3/14
f 3/3/15 4/4/16 7/12/17 8/15/18 11/20/19 12/22/20
f 6/11/21 7/13/22 4/5/23 2/6/24
f 3/7/25 12/21/26 9/16/27 1/8/28
f 10/18/29 9/16/30 12/22/31 11/19/32
f 6/10/33 5/9/34 8/15/35 7/13/36
f 13/23/37 14/24/38 16/25/39 15/26/40
f 15/26/41 16/25/42 18/27/43 17/28/44
f 17/28/45 18/27/46 20/29/47 19/30/48
f 19/30/49 20/29/50 14/31/51 13/32/52
f 14/24/53 20/33/54 18/34/55 16/25/56
f 19/35/57 13/23/58 15/26/59 17/36/60
